<svg width="71" height="36" viewBox="0 0 71 36" fill="none" xmlns="http://www.w3.org/2000/svg">
<path d="M46.15 35.5L39.05 28.4H31.95L24.85 35.5H17.75C15.867 35.5 14.061 34.752 12.7295 33.4205C11.398 32.0889 10.65 30.283 10.65 28.4V7.1C10.65 5.21696 11.398 3.41105 12.7295 2.07954C14.061 0.748033 15.867 0 17.75 0H53.25C55.133 0 56.9389 0.748033 58.2705 2.07954C59.602 3.41105 60.35 5.21696 60.35 7.1V28.4C60.35 30.283 59.602 32.0889 58.2705 33.4205C56.9389 34.752 55.133 35.5 53.25 35.5H46.15ZM71 24.85C71 25.7915 70.626 26.6945 69.9602 27.3602C69.2945 28.026 68.3915 28.4 67.45 28.4C66.5085 28.4 65.6055 28.026 64.9398 27.3602C64.274 26.6945 63.9 25.7915 63.9 24.85V10.65C63.9 9.70848 64.274 8.80553 64.9398 8.13977C65.6055 7.47402 66.5085 7.1 67.45 7.1C68.3915 7.1 69.2945 7.47402 69.9602 8.13977C70.626 8.80553 71 9.70848 71 10.65V24.85ZM7.1 24.85C7.1 25.7915 6.72598 26.6945 6.06023 27.3602C5.39447 28.026 4.49152 28.4 3.55 28.4C2.60848 28.4 1.70552 28.026 1.03977 27.3602C0.374017 26.6945 0 25.7915 0 24.85V10.65C0 9.70848 0.374017 8.80553 1.03977 8.13977C1.70552 7.47402 2.60848 7.1 3.55 7.1C4.49152 7.1 5.39447 7.47402 6.06023 8.13977C6.72598 8.80553 7.1 9.70848 7.1 10.65V24.85Z" fill="white"/>
</svg>
