<svg width="623" height="617" viewBox="0 0 623 617" fill="none" xmlns="http://www.w3.org/2000/svg">
<path fill-rule="evenodd" clip-rule="evenodd" d="M320.744 55.4025C355.668 69.113 386.621 88.7723 421.879 101.585C461.408 115.951 507.327 111.28 541.669 135.69C578.699 162.009 615.568 198.765 622.183 243.954C628.846 289.461 593.045 329.343 576.283 372.127C561.677 409.406 546.101 444.682 529.305 481.012C508.327 526.387 511.594 598.506 464.412 614.105C414.013 630.767 369.514 570.983 320.744 549.964C289.068 536.312 259.944 518.04 226.128 511.411C179.002 502.172 111.496 543.339 84.1191 503.576C55.6402 462.213 136.577 407.16 121.336 359.21C103.868 304.248 5.71877 297.005 0.20606 239.559C-4.45287 191.01 71.1451 174.979 99.8922 135.749C129.946 94.7353 125.353 21.1589 172.928 3.85142C222.592 -14.2165 271.544 36.0873 320.744 55.4025Z" fill="#B8D9C6"/>
</svg>
