<svg width="37" height="50" viewBox="0 0 37 50" fill="none" xmlns="http://www.w3.org/2000/svg">
<path d="M29.9863 18.3421C29.9863 20.6485 29.3024 22.9031 28.0211 24.8208C26.7397 26.7385 24.9184 28.2332 22.7876 29.1158C20.6568 29.9984 18.3121 30.2294 16.05 29.7794C13.7879 29.3294 11.71 28.2188 10.0792 26.5879C8.44829 24.9571 7.33766 22.8792 6.8877 20.6171C6.43774 18.355 6.66868 16.0103 7.5513 13.8795C8.43392 11.7487 9.92858 9.92742 11.8463 8.64605C13.764 7.36468 16.0186 6.68076 18.325 6.68076C21.4178 6.68076 24.3839 7.90936 26.5708 10.0963C28.7577 12.2832 29.9863 15.2493 29.9863 18.3421ZM36.65 18.3421C36.6503 21.0414 36.053 23.7073 34.9009 26.1484C33.7488 28.5895 32.0704 30.7452 29.9863 32.4607V48.3285C29.9863 48.7703 29.8108 49.194 29.4984 49.5064C29.186 49.8189 28.7623 49.9944 28.3204 49.9944C28.062 49.9889 27.8072 49.9323 27.5708 49.8278L18.325 45.1841L9.0792 49.8278C8.82391 49.9539 8.54056 50.0124 8.25621 49.9978C7.97186 49.9832 7.69599 49.896 7.45494 49.7445C7.21193 49.5969 7.0113 49.389 6.87262 49.1408C6.73394 48.8926 6.66193 48.6127 6.66363 48.3285V32.4607C4.28124 30.4953 2.43424 27.9597 1.29419 25.0894C0.15414 22.2191 -0.241963 19.1072 0.142677 16.0428C0.527317 12.9784 1.68022 10.0609 3.49429 7.56138C5.30835 5.06186 7.72473 3.06137 10.5189 1.74577C13.3132 0.430158 16.3946 -0.157893 19.4769 0.0362428C22.5592 0.230378 25.5425 1.2004 28.1495 2.8562C30.7566 4.512 32.9029 6.79985 34.389 9.50723C35.8751 12.2146 36.6529 15.2537 36.65 18.3421ZM33.3182 18.3421C33.3182 15.3767 32.4388 12.478 30.7914 10.0124C29.1439 7.54674 26.8023 5.62503 24.0626 4.49023C21.323 3.35543 18.3084 3.05852 15.4 3.63703C12.4916 4.21555 9.82004 5.64351 7.72321 7.74034C5.62638 9.83717 4.19842 12.5087 3.6199 15.4171C3.04139 18.3255 3.3383 21.3401 4.4731 24.0798C5.6079 26.8194 7.52961 29.161 9.99522 30.8085C12.4608 32.456 15.3596 33.3353 18.325 33.3353C22.2997 33.3298 26.1101 31.7484 28.9207 28.9378C31.7312 26.1272 33.3127 22.3169 33.3182 18.3421Z" fill="white"/>
</svg>
