<svg width="43" height="50" viewBox="0 0 43 50" fill="none" xmlns="http://www.w3.org/2000/svg">
<path d="M42.8319 41.0796C42.8319 43.4455 41.8921 45.7144 40.2192 47.3873C38.5463 49.0602 36.2774 50 33.9115 50C31.5457 50 29.2768 49.0602 27.6039 47.3873C25.931 45.7144 24.9912 43.4455 24.9912 41.0796C24.9948 39.9742 25.1988 38.8786 25.5933 37.846L15.3126 31.2449C14.0748 32.5165 12.486 33.3901 10.7491 33.7539C9.01227 34.1177 7.20638 33.9552 5.56238 33.2872C3.91838 32.6191 2.51097 31.476 1.52012 30.0038C0.529264 28.5317 0 26.7975 0 25.023C0 23.2484 0.529264 21.5142 1.52012 20.0421C2.51097 18.5699 3.91838 17.4268 5.56238 16.7588C7.20638 16.0908 9.01227 15.9283 10.7491 16.2921C12.486 16.6558 14.0748 17.5294 15.3126 18.801L25.5933 12.1999C25.1988 11.1673 24.9948 10.0717 24.9912 8.96629C24.9857 6.89165 25.7017 4.87966 27.0166 3.27491C28.3315 1.67016 30.1634 0.572513 32.1987 0.169967C34.2339 -0.232579 36.3457 0.085024 38.1725 1.06838C39.9993 2.05173 41.4274 3.63965 42.2121 5.56016C42.9968 7.48067 43.0894 9.61427 42.4739 11.5955C41.8585 13.5768 40.5733 15.2824 38.8386 16.4203C37.1038 17.5582 35.0274 18.0575 32.965 17.8327C30.9025 17.608 28.9824 16.6731 27.5335 15.1883L17.2528 21.7893C18.0553 23.8704 18.0553 26.1755 17.2528 28.2566L27.5335 34.8577C28.772 33.591 30.3597 32.7218 32.0941 32.3608C33.8285 31.9999 35.6312 32.1636 37.2722 32.831C38.9133 33.4984 40.3184 34.6394 41.3086 36.1084C42.2987 37.5774 42.829 39.308 42.8319 41.0796Z" fill="white"/>
</svg>
