<svg width="222" height="67" viewBox="0 0 222 67" fill="none" xmlns="http://www.w3.org/2000/svg">
<path d="M8.0128 19.9146C10.3168 19.9146 12.1168 19.0026 13.5328 17.3466L12.0208 15.5946C10.9888 16.7466 9.7408 17.4666 8.1328 17.4666C5.0128 17.4666 3.0448 14.8986 3.0448 10.6986C3.0448 6.57061 5.1568 4.02661 8.2048 4.02661C9.6448 4.02661 10.7488 4.67461 11.6608 5.61061L13.1488 3.81061C12.0688 2.65861 10.3648 1.60261 8.1568 1.60261C3.6928 1.60261 0.164801 5.03461 0.164801 10.7946C0.164801 16.6026 3.5968 19.9146 8.0128 19.9146ZM16.4004 19.5786H19.1844V11.3706C20.0004 9.28261 21.2964 8.51461 22.3524 8.51461C22.9044 8.51461 23.2404 8.58661 23.6964 8.73061L24.1764 6.33061C23.7684 6.13861 23.3604 6.04261 22.7124 6.04261C21.2964 6.04261 19.9044 7.05061 18.9684 8.75461H18.8964L18.6564 6.37861H16.4004V19.5786ZM27.2901 25.0986C30.0741 25.0986 31.4661 23.2026 32.4981 20.3946L37.3461 6.37861H34.6581L32.5221 13.1706C32.1861 14.3946 31.8261 15.6906 31.5141 16.9146H31.3941C30.9621 15.6666 30.5781 14.3466 30.1701 13.1706L27.7461 6.37861H24.9141L30.1461 19.4826L29.8821 20.3946C29.4021 21.8106 28.5381 22.8666 27.1221 22.8666C26.7861 22.8666 26.4021 22.7706 26.1621 22.6746L25.6341 24.8346C26.0901 25.0026 26.6181 25.0986 27.2901 25.0986ZM39.7207 24.9306H42.5047V20.6586L42.4087 18.4266C43.5127 19.3866 44.7127 19.9146 45.8887 19.9146C48.8647 19.9146 51.5767 17.2986 51.5767 12.7866C51.5767 8.70661 49.6807 6.04261 46.3447 6.04261C44.8567 6.04261 43.4407 6.85861 42.2887 7.84261H42.2167L41.9767 6.37861H39.7207V24.9306ZM45.3607 17.6106C44.5447 17.6106 43.5367 17.2986 42.5047 16.4106V9.95461C43.6087 8.89861 44.5927 8.34661 45.6007 8.34661C47.8087 8.34661 48.7207 10.0506 48.7207 12.8106C48.7207 15.9066 47.2567 17.6106 45.3607 17.6106ZM58.6451 19.9146C59.6291 19.9146 60.5171 19.6506 61.2611 19.4106L60.7571 17.3706C60.3491 17.5386 59.7971 17.7066 59.3411 17.7066C57.9731 17.7066 57.3971 16.8666 57.3971 15.3066V8.58661H60.8531V6.37861H57.3971V2.73061H55.0931L54.7811 6.37861L52.7171 6.52261V8.58661H54.6371V15.2826C54.6371 18.0426 55.6931 19.9146 58.6451 19.9146ZM68.5326 19.9146C71.7966 19.9146 74.7486 17.3706 74.7486 13.0026C74.7486 8.58661 71.7966 6.04261 68.5326 6.04261C65.2446 6.04261 62.3166 8.58661 62.3166 13.0026C62.3166 17.3706 65.2446 19.9146 68.5326 19.9146ZM68.5326 17.6346C66.4446 17.6346 65.1726 15.7866 65.1726 13.0026C65.1726 10.1946 66.4446 8.34661 68.5326 8.34661C70.5966 8.34661 71.9166 10.1946 71.9166 13.0026C71.9166 15.7866 70.5966 17.6346 68.5326 17.6346ZM89.5528 19.9146C92.5288 19.9146 95.2408 17.2986 95.2408 12.7626C95.2408 8.70661 93.3448 6.04261 90.0088 6.04261C88.5928 6.04261 87.2008 6.78661 86.0488 7.77061L86.1688 5.51461V0.474612H83.3848V19.5786H85.5688L85.8088 18.2106H85.9048C87.0088 19.2906 88.3528 19.9146 89.5528 19.9146ZM89.0248 17.6106C88.2088 17.6106 87.1528 17.2986 86.1688 16.4106V9.95461C87.2488 8.89861 88.2568 8.34661 89.2648 8.34661C91.4728 8.34661 92.3848 10.0506 92.3848 12.8106C92.3848 15.9066 90.9208 17.6106 89.0248 17.6106ZM101.13 19.9146C102.714 19.9146 104.13 19.1226 105.33 18.0906H105.426L105.642 19.5786H107.922V11.6586C107.922 8.13061 106.41 6.04261 103.122 6.04261C101.01 6.04261 99.1378 6.93061 97.7938 7.77061L98.8258 9.66661C99.9298 8.94661 101.25 8.29861 102.642 8.29861C104.562 8.29861 105.114 9.64261 105.138 11.1786C99.6658 11.7786 97.2658 13.2426 97.2658 16.0746C97.2658 18.4026 98.8738 19.9146 101.13 19.9146ZM101.994 17.7066C100.818 17.7066 99.9298 17.1786 99.9298 15.8826C99.9298 14.3946 101.226 13.4106 105.138 12.9546V16.1706C104.058 17.1786 103.146 17.7066 101.994 17.7066ZM115.414 19.9146C118.654 19.9146 120.406 18.1146 120.406 15.8826C120.406 13.4106 118.39 12.5706 116.542 11.8746C115.078 11.3466 113.806 10.9146 113.806 9.78661C113.806 8.87461 114.478 8.15461 115.942 8.15461C117.022 8.15461 117.958 8.65861 118.87 9.30661L120.166 7.60261C119.11 6.76261 117.646 6.04261 115.894 6.04261C112.942 6.04261 111.166 7.69861 111.166 9.90661C111.166 12.1626 113.11 13.0986 114.886 13.7706C116.302 14.2986 117.79 14.8506 117.79 16.0266C117.79 17.0346 117.046 17.8026 115.486 17.8026C114.046 17.8026 112.918 17.2026 111.742 16.2906L110.446 18.0906C111.718 19.1466 113.59 19.9146 115.414 19.9146ZM128.866 19.9146C130.594 19.9146 132.106 19.3386 133.33 18.5226L132.37 16.7466C131.386 17.3706 130.402 17.7306 129.226 17.7306C126.946 17.7306 125.362 16.2426 125.146 13.7226H133.714C133.786 13.3866 133.834 12.8586 133.834 12.3066C133.834 8.56261 131.938 6.04261 128.458 6.04261C125.386 6.04261 122.434 8.70661 122.434 13.0026C122.434 17.3466 125.266 19.9146 128.866 19.9146ZM125.098 11.8026C125.386 9.49861 126.85 8.22661 128.506 8.22661C130.426 8.22661 131.434 9.52261 131.434 11.8026H125.098ZM141.499 19.9146C142.987 19.9146 144.355 19.1226 145.363 18.1146H145.435L145.651 19.5786H147.931V0.474612H145.147V5.34661L145.267 7.53061C144.211 6.61861 143.227 6.04261 141.715 6.04261C138.787 6.04261 136.075 8.70661 136.075 13.0026C136.075 17.3706 138.187 19.9146 141.499 19.9146ZM142.171 17.6106C140.107 17.6106 138.931 15.9546 138.931 12.9546C138.931 10.1226 140.419 8.34661 142.267 8.34661C143.251 8.34661 144.187 8.68261 145.147 9.57061V16.0026C144.211 17.1066 143.251 17.6106 142.171 17.6106ZM161.047 19.9146C164.287 19.9146 166.039 18.1146 166.039 15.8826C166.039 13.4106 164.023 12.5706 162.175 11.8746C160.711 11.3466 159.439 10.9146 159.439 9.78661C159.439 8.87461 160.111 8.15461 161.575 8.15461C162.655 8.15461 163.591 8.65861 164.503 9.30661L165.799 7.60261C164.743 6.76261 163.279 6.04261 161.527 6.04261C158.575 6.04261 156.799 7.69861 156.799 9.90661C156.799 12.1626 158.743 13.0986 160.519 13.7706C161.935 14.2986 163.423 14.8506 163.423 16.0266C163.423 17.0346 162.679 17.8026 161.119 17.8026C159.679 17.8026 158.551 17.2026 157.375 16.2906L156.079 18.0906C157.351 19.1466 159.223 19.9146 161.047 19.9146ZM174.283 19.9146C177.547 19.9146 180.499 17.3706 180.499 13.0026C180.499 8.58661 177.547 6.04261 174.283 6.04261C170.995 6.04261 168.067 8.58661 168.067 13.0026C168.067 17.3706 170.995 19.9146 174.283 19.9146ZM174.283 17.6346C172.195 17.6346 170.923 15.7866 170.923 13.0026C170.923 10.1946 172.195 8.34661 174.283 8.34661C176.347 8.34661 177.667 10.1946 177.667 13.0026C177.667 15.7866 176.347 17.6346 174.283 17.6346ZM189.12 19.9146C190.656 19.9146 192.216 19.3386 193.416 18.2826L192.288 16.4346C191.496 17.1066 190.512 17.6346 189.408 17.6346C187.2 17.6346 185.688 15.7866 185.688 13.0026C185.688 10.1946 187.248 8.34661 189.504 8.34661C190.392 8.34661 191.136 8.73061 191.856 9.35461L193.2 7.57861C192.264 6.71461 191.04 6.04261 189.36 6.04261C185.88 6.04261 182.832 8.58661 182.832 13.0026C182.832 17.3706 185.568 19.9146 189.12 19.9146ZM196.143 19.5786H198.927V6.37861H196.143V19.5786ZM197.535 3.90661C198.543 3.90661 199.263 3.25861 199.263 2.25061C199.263 1.26661 198.543 0.618613 197.535 0.618613C196.503 0.618613 195.831 1.26661 195.831 2.25061C195.831 3.25861 196.503 3.90661 197.535 3.90661ZM206.177 19.9146C207.761 19.9146 209.177 19.1226 210.377 18.0906H210.473L210.689 19.5786H212.969V11.6586C212.969 8.13061 211.457 6.04261 208.169 6.04261C206.057 6.04261 204.185 6.93061 202.841 7.77061L203.873 9.66661C204.977 8.94661 206.297 8.29861 207.689 8.29861C209.609 8.29861 210.161 9.64261 210.185 11.1786C204.713 11.7786 202.313 13.2426 202.313 16.0746C202.313 18.4026 203.921 19.9146 206.177 19.9146ZM207.041 17.7066C205.865 17.7066 204.977 17.1786 204.977 15.8826C204.977 14.3946 206.273 13.4106 210.185 12.9546V16.1706C209.105 17.1786 208.193 17.7066 207.041 17.7066ZM219.621 19.9146C220.317 19.9146 220.749 19.7946 221.109 19.6746L220.749 17.5866C220.509 17.6346 220.413 17.6346 220.293 17.6346C219.957 17.6346 219.645 17.3706 219.645 16.6266V0.474612H216.861V16.4826C216.861 18.6186 217.605 19.9146 219.621 19.9146ZM28.1543 65.9306H30.9383V61.6586L30.8423 59.4266C31.9463 60.3866 33.1463 60.9146 34.3223 60.9146C37.2983 60.9146 40.0103 58.2986 40.0103 53.7866C40.0103 49.7066 38.1143 47.0426 34.7783 47.0426C33.2903 47.0426 31.8743 47.8586 30.7223 48.8426H30.6503L30.4103 47.3786H28.1543V65.9306ZM33.7943 58.6106C32.9783 58.6106 31.9703 58.2986 30.9383 57.4106V50.9546C32.0423 49.8986 33.0263 49.3466 34.0343 49.3466C36.2423 49.3466 37.1543 51.0506 37.1543 53.8106C37.1543 56.9066 35.6903 58.6106 33.7943 58.6106ZM43.2715 60.5786H46.0555V52.3706C46.8715 50.2826 48.1675 49.5146 49.2235 49.5146C49.7755 49.5146 50.1115 49.5866 50.5675 49.7306L51.0475 47.3306C50.6395 47.1386 50.2315 47.0426 49.5835 47.0426C48.1675 47.0426 46.7755 48.0506 45.8395 49.7546H45.7675L45.5275 47.3786H43.2715V60.5786ZM58.0208 60.9146C61.2848 60.9146 64.2368 58.3706 64.2368 54.0026C64.2368 49.5866 61.2848 47.0426 58.0208 47.0426C54.7328 47.0426 51.8048 49.5866 51.8048 54.0026C51.8048 58.3706 54.7328 60.9146 58.0208 60.9146ZM58.0208 58.6346C55.9328 58.6346 54.6608 56.7866 54.6608 54.0026C54.6608 51.1946 55.9328 49.3466 58.0208 49.3466C60.0848 49.3466 61.4048 51.1946 61.4048 54.0026C61.4048 56.7866 60.0848 58.6346 58.0208 58.6346ZM67.7744 60.5786H70.5344V45.7226C70.5344 44.1146 71.1344 43.3466 72.2864 43.3466C72.7664 43.3466 73.2704 43.4426 73.7504 43.6826L74.3024 41.5706C73.7024 41.3306 72.8624 41.1386 71.9504 41.1386C69.0224 41.1386 67.7744 43.0346 67.7744 45.7226V60.5786ZM65.9744 49.5866H73.2224V47.3786H67.9184L65.9744 47.5226V49.5866ZM75.5984 60.5786H78.3824V47.3786H75.5984V60.5786ZM76.9904 44.9066C77.9984 44.9066 78.7424 44.2586 78.7424 43.2506C78.7424 42.2666 77.9984 41.6186 76.9904 41.6186C75.9824 41.6186 75.2864 42.2666 75.2864 43.2506C75.2864 44.2586 75.9824 44.9066 76.9904 44.9066ZM86.9459 60.9146C87.9299 60.9146 88.8179 60.6506 89.5619 60.4106L89.0579 58.3706C88.6499 58.5386 88.0979 58.7066 87.6419 58.7066C86.2739 58.7066 85.6979 57.8666 85.6979 56.3066V49.5866H89.1539V47.3786H85.6979V43.7306H83.3939L83.0819 47.3786L81.0179 47.5226V49.5866H82.9379V56.2826C82.9379 59.0426 83.9939 60.9146 86.9459 60.9146ZM101.012 60.9146C104.252 60.9146 106.004 59.1146 106.004 56.8826C106.004 54.4106 103.988 53.5706 102.14 52.8746C100.676 52.3466 99.4041 51.9146 99.4041 50.7866C99.4041 49.8746 100.076 49.1546 101.54 49.1546C102.62 49.1546 103.556 49.6586 104.468 50.3066L105.764 48.6026C104.708 47.7626 103.244 47.0426 101.492 47.0426C98.5401 47.0426 96.7641 48.6986 96.7641 50.9066C96.7641 53.1626 98.7081 54.0986 100.484 54.7706C101.9 55.2986 103.388 55.8506 103.388 57.0266C103.388 58.0346 102.644 58.8026 101.084 58.8026C99.6441 58.8026 98.5161 58.2026 97.3401 57.2906L96.0441 59.0906C97.3161 60.1466 99.1881 60.9146 101.012 60.9146ZM109.567 66.0986C112.351 66.0986 113.743 64.2026 114.775 61.3946L119.623 47.3786H116.935L114.799 54.1706C114.463 55.3946 114.103 56.6906 113.791 57.9146H113.671C113.239 56.6666 112.855 55.3466 112.447 54.1706L110.023 47.3786H107.191L112.423 60.4826L112.159 61.3946C111.679 62.8106 110.815 63.8666 109.399 63.8666C109.063 63.8666 108.679 63.7706 108.439 63.6746L107.911 65.8346C108.367 66.0026 108.895 66.0986 109.567 66.0986ZM125.598 60.9146C128.838 60.9146 130.59 59.1146 130.59 56.8826C130.59 54.4106 128.574 53.5706 126.726 52.8746C125.262 52.3466 123.99 51.9146 123.99 50.7866C123.99 49.8746 124.662 49.1546 126.126 49.1546C127.206 49.1546 128.142 49.6586 129.054 50.3066L130.35 48.6026C129.294 47.7626 127.83 47.0426 126.078 47.0426C123.126 47.0426 121.35 48.6986 121.35 50.9066C121.35 53.1626 123.294 54.0986 125.07 54.7706C126.486 55.2986 127.974 55.8506 127.974 57.0266C127.974 58.0346 127.23 58.8026 125.67 58.8026C124.23 58.8026 123.102 58.2026 121.926 57.2906L120.63 59.0906C121.902 60.1466 123.774 60.9146 125.598 60.9146ZM137.313 60.9146C138.297 60.9146 139.185 60.6506 139.929 60.4106L139.425 58.3706C139.017 58.5386 138.465 58.7066 138.009 58.7066C136.641 58.7066 136.065 57.8666 136.065 56.3066V49.5866H139.521V47.3786H136.065V43.7306H133.761L133.449 47.3786L131.385 47.5226V49.5866H133.305V56.2826C133.305 59.0426 134.361 60.9146 137.313 60.9146ZM147.417 60.9146C149.145 60.9146 150.657 60.3386 151.881 59.5226L150.921 57.7466C149.937 58.3706 148.953 58.7306 147.777 58.7306C145.497 58.7306 143.913 57.2426 143.697 54.7226H152.265C152.337 54.3866 152.385 53.8586 152.385 53.3066C152.385 49.5626 150.489 47.0426 147.009 47.0426C143.937 47.0426 140.985 49.7066 140.985 54.0026C140.985 58.3466 143.817 60.9146 147.417 60.9146ZM143.649 52.8026C143.937 50.4986 145.401 49.2266 147.057 49.2266C148.977 49.2266 149.985 50.5226 149.985 52.8026H143.649ZM155.49 60.5786H158.274V51.2186C159.33 50.0186 160.338 49.4426 161.226 49.4426C162.738 49.4426 163.434 50.3306 163.434 52.6346V60.5786H166.194V51.2186C167.298 50.0186 168.258 49.4426 169.17 49.4426C170.658 49.4426 171.354 50.3306 171.354 52.6346V60.5786H174.114V52.2746C174.114 48.9386 172.842 47.0426 170.082 47.0426C168.426 47.0426 167.082 48.0986 165.762 49.4666C165.21 47.9546 164.106 47.0426 162.138 47.0426C160.506 47.0426 159.186 48.0266 158.058 49.2266H157.986L157.746 47.3786H155.49V60.5786Z" fill="#042411"/>
</svg>
