<svg width="37" height="50" viewBox="0 0 37 50" fill="none" xmlns="http://www.w3.org/2000/svg">
<path d="M33.3834 15.3846C33.744 19.0304 32.4319 21.6146 29.4471 23.137C31.7909 23.6979 33.5437 24.7296 34.7055 26.232C35.8674 27.7344 36.3181 29.8778 36.0577 32.6623C35.9175 34.0845 35.5919 35.3365 35.0811 36.4183C34.5703 37.5 33.9243 38.3914 33.143 39.0925C32.3618 39.7937 31.3902 40.3796 30.2284 40.8504C29.0665 41.3211 27.8496 41.6667 26.5775 41.887C25.3055 42.1074 23.8482 42.2576 22.2055 42.3377V50H17.5781V42.4579C15.9756 42.4579 14.7536 42.4479 13.9123 42.4279V50H9.28486V42.3377C8.92428 42.3377 8.38341 42.3327 7.66226 42.3227C6.94111 42.3127 6.39022 42.3077 6.00962 42.3077H0L0.93149 36.8089H4.26683C5.26843 36.8089 5.84936 36.2981 6.00962 35.2764V23.1971H6.49038C6.37019 23.1771 6.20994 23.1671 6.00962 23.1671V14.5433C5.7492 13.1811 4.85777 12.5 3.33534 12.5H0V7.57212L6.37019 7.60216C7.65224 7.60216 8.6238 7.59215 9.28486 7.57212V0H13.9123V7.42187C15.5549 7.38181 16.7768 7.36178 17.5781 7.36178V0H22.2055V7.57212C23.7881 7.71234 25.1903 7.9377 26.4123 8.2482C27.6342 8.55869 28.766 9.00941 29.8077 9.60036C30.8494 10.1913 31.6757 10.9726 32.2867 11.9441C32.8976 12.9157 33.2632 14.0625 33.3834 15.3846ZM26.9231 31.7608C26.9231 31.0397 26.7728 30.3986 26.4724 29.8377C26.1719 29.2768 25.8013 28.8161 25.3606 28.4555C24.9199 28.095 24.344 27.7895 23.6328 27.5391C22.9217 27.2887 22.2656 27.1034 21.6647 26.9832C21.0637 26.863 20.3225 26.7728 19.4411 26.7127C18.5597 26.6526 17.8686 26.6226 17.3678 26.6226C16.867 26.6226 16.221 26.6326 15.4297 26.6526C14.6384 26.6727 14.1627 26.6827 14.0024 26.6827V36.8389C14.1627 36.8389 14.5333 36.8439 15.1142 36.854C15.6951 36.864 16.1759 36.869 16.5565 36.869C16.9371 36.869 17.4679 36.854 18.149 36.8239C18.8301 36.7939 19.4161 36.7538 19.9069 36.7037C20.3976 36.6536 20.9686 36.5685 21.6196 36.4483C22.2706 36.3281 22.8265 36.1879 23.2873 36.0276C23.748 35.8674 24.2238 35.6571 24.7145 35.3966C25.2053 35.1362 25.601 34.8357 25.9014 34.4952C26.2019 34.1546 26.4473 33.754 26.6376 33.2933C26.8279 32.8325 26.9231 32.3217 26.9231 31.7608ZM24.7897 17.4579C24.7897 16.7969 24.6645 16.2109 24.4141 15.7001C24.1637 15.1893 23.8582 14.7686 23.4976 14.4381C23.137 14.1076 22.6563 13.8271 22.0553 13.5968C21.4543 13.3664 20.9034 13.2011 20.4026 13.101C19.9018 13.0008 19.2859 12.9207 18.5547 12.8606C17.8235 12.8005 17.2426 12.7754 16.8119 12.7855C16.3812 12.7955 15.8403 12.8055 15.1893 12.8155C14.5383 12.8255 14.1426 12.8305 14.0024 12.8305V22.0553C14.1026 22.0553 14.4481 22.0603 15.0391 22.0703C15.63 22.0803 16.0958 22.0803 16.4363 22.0703C16.7768 22.0603 17.2776 22.0403 17.9387 22.0102C18.5998 21.9802 19.1506 21.9251 19.5913 21.845C20.0321 21.7648 20.5479 21.6546 21.1388 21.5144C21.7298 21.3742 22.2155 21.1889 22.5962 20.9585C22.9768 20.7282 23.3474 20.4577 23.7079 20.1472C24.0685 19.8367 24.3389 19.4511 24.5192 18.9904C24.6995 18.5296 24.7897 18.0188 24.7897 17.4579Z" fill="white"/>
</svg>
